<?xml version="1.0" encoding="utf-8"?>
<!-- Generator: Adobe Illustrator 23.0.1, SVG Export Plug-In . SVG Version: 6.00 Build 0)  -->
<svg version="1.1" id="Livello_1" xmlns="http://www.w3.org/2000/svg" xmlns:xlink="http://www.w3.org/1999/xlink" x="0px" y="0px"
	 viewBox="0 0 1440 320" style="enable-background:new 0 0 1440 320;" xml:space="preserve">
<style type="text/css">
	.st0{fill:#FFFFFF;}
</style>
<path class="st0" d="M0,192l24-10.7c12-5.1,30-13.2,51-18.6c21-5.4,45-8.2,69-2.7c25.4,5.8,50.9,20.4,76.3,35.2
	c22.6,13.1,45.1,26.5,67.7,34.1c28.1,9.2,56.3,9.6,84.4,5c19.9-3.2,39.7-8.9,59.6-15.6c25.1-8.2,50.1-18.1,75.2-30.2
	c22.9-11.1,45.9-24,68.8-39.2c22.8-15.3,45.5-32.8,68.3-44.7C669.5,91.3,694.8,85,720,96c24,10.5,48,37.3,72,61.3s48,45.5,72,45.4
	c27.7,0.2,55.4-28.3,83-61.7c20.3-24.5,40.6-51.5,61-71.7c22-22.2,44.1-36.3,66.1-44c26-9.2,51.9-9.5,77.9-4
	c25.1,5.6,50.2,17,75.3,31.2c22.9,13,45.8,28.2,68.7,43.5c18.3,12.2,36.6,24.4,53.5,35.7c27.6,18.4,51.6,34.4,66.5,44.3l24,16V0h-24
	c-24,0-72,0-120,0s-96,0-144,0s-96,0-144,0s-96,0-144,0s-96,0-144,0s-96,0-144,0s-96,0-144,0s-96,0-144,0s-96,0-144,0S48,0,24,0H0
	V192z"/>
</svg>
